<mxfile host="Electron" modified="2024-03-30T05:40:51.820Z" agent="Mozilla/5.0 (X11; Linux x86_64) AppleWebKit/537.36 (KHTML, like Gecko) draw.io/24.1.0 Chrome/120.0.6099.109 Electron/28.1.0 Safari/537.36" etag="ggVRYlK95nium1Xnj9WT" version="24.1.0" type="device">
  <diagram name="Page-1" id="2cc2dc42-3aac-f2a9-1cec-7a8b7cbee084">
    <mxGraphModel dx="1819" dy="1124" grid="1" gridSize="10" guides="1" tooltips="1" connect="1" arrows="1" fold="1" page="1" pageScale="1" pageWidth="1100" pageHeight="850" background="none" math="0" shadow="0">
      <root>
        <mxCell id="0" />
        <mxCell id="1" parent="0" />
        <mxCell id="r2bVZZ1KnTMVltNwPZre-73" value="" style="group" vertex="1" connectable="0" parent="1">
          <mxGeometry x="10" y="90" width="1090" height="490" as="geometry" />
        </mxCell>
        <mxCell id="r2bVZZ1KnTMVltNwPZre-74" value="" style="edgeStyle=orthogonalEdgeStyle;rounded=0;orthogonalLoop=1;jettySize=auto;html=1;" edge="1" parent="r2bVZZ1KnTMVltNwPZre-73" source="r2bVZZ1KnTMVltNwPZre-80" target="r2bVZZ1KnTMVltNwPZre-84">
          <mxGeometry relative="1" as="geometry">
            <Array as="points">
              <mxPoint x="476.21359223300976" y="91.875" />
              <mxPoint x="190.48543689320388" y="91.875" />
            </Array>
          </mxGeometry>
        </mxCell>
        <mxCell id="r2bVZZ1KnTMVltNwPZre-75" value="" style="edgeStyle=orthogonalEdgeStyle;rounded=0;orthogonalLoop=1;jettySize=auto;html=1;" edge="1" parent="r2bVZZ1KnTMVltNwPZre-73" source="r2bVZZ1KnTMVltNwPZre-80" target="r2bVZZ1KnTMVltNwPZre-87">
          <mxGeometry relative="1" as="geometry" />
        </mxCell>
        <mxCell id="r2bVZZ1KnTMVltNwPZre-76" value="" style="edgeStyle=orthogonalEdgeStyle;rounded=0;orthogonalLoop=1;jettySize=auto;html=1;" edge="1" parent="r2bVZZ1KnTMVltNwPZre-73" source="r2bVZZ1KnTMVltNwPZre-80" target="r2bVZZ1KnTMVltNwPZre-88">
          <mxGeometry relative="1" as="geometry" />
        </mxCell>
        <mxCell id="r2bVZZ1KnTMVltNwPZre-77" value="" style="edgeStyle=orthogonalEdgeStyle;rounded=0;orthogonalLoop=1;jettySize=auto;html=1;" edge="1" parent="r2bVZZ1KnTMVltNwPZre-73" source="r2bVZZ1KnTMVltNwPZre-80" target="r2bVZZ1KnTMVltNwPZre-89">
          <mxGeometry relative="1" as="geometry">
            <Array as="points">
              <mxPoint x="476.21359223300976" y="91.875" />
              <mxPoint x="687.8640776699029" y="91.875" />
            </Array>
          </mxGeometry>
        </mxCell>
        <mxCell id="r2bVZZ1KnTMVltNwPZre-78" value="" style="edgeStyle=orthogonalEdgeStyle;rounded=0;orthogonalLoop=1;jettySize=auto;html=1;" edge="1" parent="r2bVZZ1KnTMVltNwPZre-73" source="r2bVZZ1KnTMVltNwPZre-80" target="r2bVZZ1KnTMVltNwPZre-91">
          <mxGeometry relative="1" as="geometry">
            <Array as="points">
              <mxPoint x="476.21359223300976" y="91.875" />
              <mxPoint x="867.7669902912621" y="91.875" />
            </Array>
          </mxGeometry>
        </mxCell>
        <mxCell id="r2bVZZ1KnTMVltNwPZre-79" value="" style="edgeStyle=orthogonalEdgeStyle;rounded=0;orthogonalLoop=1;jettySize=auto;html=1;" edge="1" parent="r2bVZZ1KnTMVltNwPZre-73" source="r2bVZZ1KnTMVltNwPZre-80" target="r2bVZZ1KnTMVltNwPZre-98">
          <mxGeometry relative="1" as="geometry">
            <Array as="points">
              <mxPoint x="476.21359223300976" y="91.875" />
              <mxPoint x="1026.5048543689322" y="91.875" />
            </Array>
          </mxGeometry>
        </mxCell>
        <mxCell id="r2bVZZ1KnTMVltNwPZre-80" value="home" style="rounded=0;whiteSpace=wrap;html=1;" vertex="1" parent="r2bVZZ1KnTMVltNwPZre-73">
          <mxGeometry x="412.71844660194165" width="126.99029126213591" height="61.25" as="geometry" />
        </mxCell>
        <mxCell id="r2bVZZ1KnTMVltNwPZre-81" value="" style="edgeStyle=orthogonalEdgeStyle;rounded=0;orthogonalLoop=1;jettySize=auto;html=1;" edge="1" parent="r2bVZZ1KnTMVltNwPZre-73" source="r2bVZZ1KnTMVltNwPZre-84" target="r2bVZZ1KnTMVltNwPZre-92">
          <mxGeometry relative="1" as="geometry">
            <Array as="points">
              <mxPoint x="158.73786407766988" y="255.20833333333334" />
            </Array>
          </mxGeometry>
        </mxCell>
        <mxCell id="r2bVZZ1KnTMVltNwPZre-82" value="" style="edgeStyle=orthogonalEdgeStyle;rounded=0;orthogonalLoop=1;jettySize=auto;html=1;" edge="1" parent="r2bVZZ1KnTMVltNwPZre-73" source="r2bVZZ1KnTMVltNwPZre-84" target="r2bVZZ1KnTMVltNwPZre-93">
          <mxGeometry relative="1" as="geometry">
            <Array as="points">
              <mxPoint x="158.73786407766988" y="357.29166666666674" />
            </Array>
          </mxGeometry>
        </mxCell>
        <mxCell id="r2bVZZ1KnTMVltNwPZre-83" value="" style="edgeStyle=orthogonalEdgeStyle;rounded=0;orthogonalLoop=1;jettySize=auto;html=1;" edge="1" parent="r2bVZZ1KnTMVltNwPZre-73" source="r2bVZZ1KnTMVltNwPZre-84" target="r2bVZZ1KnTMVltNwPZre-96">
          <mxGeometry relative="1" as="geometry">
            <Array as="points">
              <mxPoint x="158.73786407766988" y="459.375" />
            </Array>
          </mxGeometry>
        </mxCell>
        <mxCell id="r2bVZZ1KnTMVltNwPZre-84" value="membership" style="rounded=0;whiteSpace=wrap;html=1;" vertex="1" parent="r2bVZZ1KnTMVltNwPZre-73">
          <mxGeometry x="95.24271844660194" y="122.5" width="126.99029126213591" height="61.25" as="geometry" />
        </mxCell>
        <mxCell id="r2bVZZ1KnTMVltNwPZre-85" value="" style="edgeStyle=orthogonalEdgeStyle;rounded=0;orthogonalLoop=1;jettySize=auto;html=1;" edge="1" parent="r2bVZZ1KnTMVltNwPZre-73" source="r2bVZZ1KnTMVltNwPZre-87" target="r2bVZZ1KnTMVltNwPZre-94">
          <mxGeometry relative="1" as="geometry">
            <Array as="points">
              <mxPoint x="349.22330097087377" y="255.20833333333334" />
            </Array>
          </mxGeometry>
        </mxCell>
        <mxCell id="r2bVZZ1KnTMVltNwPZre-86" value="" style="edgeStyle=orthogonalEdgeStyle;rounded=0;orthogonalLoop=1;jettySize=auto;html=1;" edge="1" parent="r2bVZZ1KnTMVltNwPZre-73" source="r2bVZZ1KnTMVltNwPZre-87" target="r2bVZZ1KnTMVltNwPZre-97">
          <mxGeometry relative="1" as="geometry">
            <Array as="points">
              <mxPoint x="349.22330097087377" y="357.29166666666674" />
            </Array>
          </mxGeometry>
        </mxCell>
        <mxCell id="r2bVZZ1KnTMVltNwPZre-87" value="classes &amp;amp; programes" style="rounded=0;whiteSpace=wrap;html=1;" vertex="1" parent="r2bVZZ1KnTMVltNwPZre-73">
          <mxGeometry x="285.7281553398058" y="122.5" width="126.99029126213591" height="61.25" as="geometry" />
        </mxCell>
        <mxCell id="r2bVZZ1KnTMVltNwPZre-88" value="blogs" style="rounded=0;whiteSpace=wrap;html=1;" vertex="1" parent="r2bVZZ1KnTMVltNwPZre-73">
          <mxGeometry x="465.631067961165" y="122.5" width="126.99029126213591" height="61.25" as="geometry" />
        </mxCell>
        <mxCell id="r2bVZZ1KnTMVltNwPZre-89" value="about us" style="rounded=0;whiteSpace=wrap;html=1;" vertex="1" parent="r2bVZZ1KnTMVltNwPZre-73">
          <mxGeometry x="624.3689320388349" y="122.5" width="126.99029126213591" height="61.25" as="geometry" />
        </mxCell>
        <mxCell id="r2bVZZ1KnTMVltNwPZre-90" value="" style="edgeStyle=orthogonalEdgeStyle;rounded=0;orthogonalLoop=1;jettySize=auto;html=1;" edge="1" parent="r2bVZZ1KnTMVltNwPZre-73" source="r2bVZZ1KnTMVltNwPZre-91" target="r2bVZZ1KnTMVltNwPZre-95">
          <mxGeometry relative="1" as="geometry" />
        </mxCell>
        <mxCell id="r2bVZZ1KnTMVltNwPZre-91" value="user profile" style="rounded=0;whiteSpace=wrap;html=1;" vertex="1" parent="r2bVZZ1KnTMVltNwPZre-73">
          <mxGeometry x="804.2718446601941" y="122.5" width="126.99029126213591" height="61.25" as="geometry" />
        </mxCell>
        <mxCell id="r2bVZZ1KnTMVltNwPZre-92" value="business membership form" style="rounded=0;whiteSpace=wrap;html=1;" vertex="1" parent="r2bVZZ1KnTMVltNwPZre-73">
          <mxGeometry y="224.58333333333337" width="126.99029126213591" height="61.25" as="geometry" />
        </mxCell>
        <mxCell id="r2bVZZ1KnTMVltNwPZre-93" value="payment" style="rounded=0;whiteSpace=wrap;html=1;" vertex="1" parent="r2bVZZ1KnTMVltNwPZre-73">
          <mxGeometry y="326.66666666666663" width="126.99029126213591" height="61.25" as="geometry" />
        </mxCell>
        <mxCell id="r2bVZZ1KnTMVltNwPZre-94" value="payment" style="rounded=0;whiteSpace=wrap;html=1;" vertex="1" parent="r2bVZZ1KnTMVltNwPZre-73">
          <mxGeometry x="380.97087378640776" y="224.58333333333337" width="126.99029126213591" height="61.25" as="geometry" />
        </mxCell>
        <mxCell id="r2bVZZ1KnTMVltNwPZre-95" value="edit profile" style="rounded=0;whiteSpace=wrap;html=1;" vertex="1" parent="r2bVZZ1KnTMVltNwPZre-73">
          <mxGeometry x="804.2718446601941" y="224.58333333333337" width="126.99029126213591" height="61.25" as="geometry" />
        </mxCell>
        <mxCell id="r2bVZZ1KnTMVltNwPZre-96" value="log in" style="rounded=0;whiteSpace=wrap;html=1;" vertex="1" parent="r2bVZZ1KnTMVltNwPZre-73">
          <mxGeometry y="428.75" width="126.99029126213591" height="61.25" as="geometry" />
        </mxCell>
        <mxCell id="r2bVZZ1KnTMVltNwPZre-97" value="classes &amp;amp; programes" style="rounded=0;whiteSpace=wrap;html=1;" vertex="1" parent="r2bVZZ1KnTMVltNwPZre-73">
          <mxGeometry x="380.97087378640776" y="326.66666666666663" width="126.99029126213591" height="61.25" as="geometry" />
        </mxCell>
        <mxCell id="r2bVZZ1KnTMVltNwPZre-98" value="log in" style="rounded=0;whiteSpace=wrap;html=1;" vertex="1" parent="r2bVZZ1KnTMVltNwPZre-73">
          <mxGeometry x="963.009708737864" y="122.5" width="126.99029126213591" height="61.25" as="geometry" />
        </mxCell>
      </root>
    </mxGraphModel>
  </diagram>
</mxfile>
